<?xml version="1.0" encoding="UTF-8"?>
<!DOCTYPE svg PUBLIC "-//W3C//DTD SVG 1.1//EN" "http://www.w3.org/Graphics/SVG/1.1/DTD/svg11.dtd">
<!-- Creator: CorelDRAW Standard 2021 (64-Bit) -->
<svg xmlns="http://www.w3.org/2000/svg" xml:space="preserve" width="8.2623in" height="3.75033in" version="1.1" style="shape-rendering:geometricPrecision; text-rendering:geometricPrecision; image-rendering:optimizeQuality; fill-rule:evenodd; clip-rule:evenodd"
viewBox="0 0 7821.01 3550.03"
 xmlns:xlink="http://www.w3.org/1999/xlink"
 xmlns:xodm="http://www.corel.com/coreldraw/odm/2003">
 <defs>
  <style type="text/css">
   <![CDATA[
    .fil2 {fill:none}
    .fil1 {fill:#FFFFFF}
    .fil0 {fill:#FFFFFF;fill-rule:nonzero}
   ]]>
  </style>
 </defs>
 <g id="Layer_x0020_1">
  <metadata id="CorelCorpID_0Corel-Layer"/>
  <g id="_2429375317104">
   <g>
    <path class="fil0" d="M1714.61 2454.6c0,-82.36 25.46,-141.79 100.19,-141.79 74.73,0 80.67,60.28 80.67,122.26l0 262.37 101.04 0 0 -242.83c0,-82.36 25.46,-141.79 100.19,-141.79 74.72,0 80.66,60.28 80.66,122.26l0 262.37 101.04 0 0 -286.98c0,-108.67 -40.76,-180 -149.45,-180 -56.87,0 -108.68,22.92 -148.58,80.66 -21.23,-50.96 -61.98,-80.66 -133.29,-80.66 -61.13,0 -106.15,26.31 -132.47,73.88l0 -63.7 -101.04 0 0 456.81 101.04 0 0 -242.83z"/>
    <path class="fil0" d="M2666.61 2517.43c0,78.12 -44.15,115.48 -118.87,115.48 -50.93,0 -84.06,-23.77 -84.06,-63.68 0,-51.8 58.59,-73.03 202.93,-86.62l0 34.82zm-140.95 191.03c67.92,0 120.57,-22.92 150.3,-73.01 2.55,31.4 5.09,42.45 8.48,61.98l92.53 0c-9.33,-38.21 -13.57,-98.49 -13.57,-156.24 0,-41.6 1.7,-95.93 1.7,-118.03 2.55,-146.04 -83.21,-196.12 -192.75,-196.12 -110.37,0 -187.64,64.52 -194.42,157.08l99.34 0c2.54,-55.19 40.76,-82.36 91.69,-82.36 50.96,0 95.11,23.77 95.11,101.89l0 8.48c-166.41,17.83 -307.36,44.99 -307.36,159.63 0,83.21 69.62,136.69 168.96,136.69z"/>
    <path class="fil0" d="M2968.31 2240.63l-101.04 0 0 456.81 101.04 0 0 -242.83c0,-82.36 28.03,-141.79 106.15,-141.79 78.09,0 86.6,60.28 86.6,122.26l0 262.37 101.04 0 0 -286.98c0,-108.67 -45,-180 -155.39,-180 -64.53,0 -112.07,26.31 -138.4,73.88l0 -63.7z"/>
    <path class="fil0" d="M3650.01 2517.43c0,78.12 -44.15,115.48 -118.87,115.48 -50.93,0 -84.06,-23.77 -84.06,-63.68 0,-51.8 58.59,-73.03 202.93,-86.62l0 34.82zm-140.95 191.03c67.92,0 120.57,-22.92 150.28,-73.01 2.57,31.4 5.11,42.45 8.5,61.98l92.53 0c-9.33,-38.21 -13.57,-98.49 -13.57,-156.24 0,-41.6 1.7,-95.93 1.7,-118.03 2.55,-146.04 -83.21,-196.12 -192.75,-196.12 -110.37,0 -187.64,64.52 -194.42,157.08l99.34 0c2.54,-55.19 40.76,-82.36 91.69,-82.36 50.96,0 95.11,23.77 95.11,101.89l0 8.48c-166.41,17.83 -307.36,44.99 -307.36,159.63 0,83.21 69.62,136.69 168.96,136.69z"/>
    <path class="fil0" d="M3868.41 2240.63l-63.67 0 0 73.03 63.67 0 0 383.78 101.04 0 0 -383.78 89.99 0 0 -73.03 -89.99 0 0 -24.62c0,-47.54 11.02,-56.87 61.13,-56.87l28.86 0 0 -77.27 -39.91 0c-111.22,0 -151.13,24.62 -151.13,130.75l0 28.01z"/>
    <path class="fil0" d="M4390.46 2517.43c0,78.12 -44.15,115.48 -118.87,115.48 -50.93,0 -84.06,-23.77 -84.06,-63.68 0,-51.8 58.59,-73.03 202.93,-86.62l0 34.82zm-140.95 191.03c67.92,0 120.57,-22.92 150.28,-73.01 2.57,31.4 5.11,42.45 8.5,61.98l92.53 0c-9.33,-38.21 -13.57,-98.49 -13.57,-156.24 0,-41.6 1.7,-95.93 1.7,-118.03 2.55,-146.04 -83.21,-196.12 -192.75,-196.12 -110.37,0 -187.64,64.52 -194.43,157.08l99.35 0c2.54,-55.19 40.76,-82.36 91.69,-82.36 50.96,0 95.11,23.77 95.11,101.89l0 8.48c-166.41,17.83 -307.36,44.99 -307.36,159.63 0,83.21 69.62,136.69 168.96,136.69z"/>
    <path class="fil0" d="M1239.92 2240.15l29.23 171.52c-46.14,9.54 -90.22,16.96 -132.26,22.26 -41.03,6.35 -81.01,9.51 -119.97,9.51 -83.05,0 -155.85,-13.75 -218.4,-41.28 -61.52,-27.53 -109.7,-67.78 -144.57,-120.71 -33.84,-51.89 -50.75,-113.83 -50.75,-185.83 0,-64.6 13.32,-121.79 39.98,-171.53 26.66,-50.84 64.59,-92.65 113.81,-125.48 49.24,-32.83 106.13,-55.08 170.72,-66.73l16.92 -12.7c29.75,-10.59 60.51,-24.34 92.28,-41.28 31.79,-18.02 62.05,-39.2 90.75,-63.54 29.73,-24.34 55.88,-50.82 78.44,-79.4 22.55,-29.66 40.5,-60.91 53.84,-93.7 14.35,-32.85 21.52,-66.73 21.52,-101.66l0 -101.66 98.43 168.36c-53.31,-29.64 -108.17,-51.87 -164.56,-66.7 -55.38,-14.83 -107.67,-22.24 -156.88,-22.24 -50.24,0 -103.06,7.41 -158.42,22.24 -55.38,14.83 -109.73,37.06 -163.04,66.7l98.43 -168.36 0 101.66c0,32.82 7.2,67.76 21.54,104.82 15.38,37.06 35.87,73.58 61.52,109.59 25.63,34.93 55.88,67.23 90.75,96.89 34.84,28.58 72.8,51.87 113.81,69.87 41.01,16.94 83.05,25.42 126.12,25.42l310.68 0 0 184.25 -244.56 0c-79.97,0 -154.81,-13.25 -224.54,-39.72 -69.73,-26.45 -132.79,-61.41 -189.17,-104.82 -56.41,-44.47 -105.1,-92.63 -146.13,-144.53 -39.98,-52.95 -70.74,-105.35 -92.29,-157.24 -21.52,-52.93 -32.3,-101.11 -32.3,-144.52l0 -90.54c44.1,-25.4 90.75,-46.58 139.96,-63.51 50.24,-16.94 99.98,-29.66 149.2,-38.12 49.21,-9.54 95.36,-14.3 138.43,-14.3 43.05,0 89.19,4.77 138.43,14.3 49.22,8.46 98.43,21.18 147.64,38.12 50.24,16.94 97.42,38.12 141.5,63.51l0 90.54c0,54 -11.28,106.4 -33.84,157.24 -22.55,49.76 -53.31,96.34 -92.28,139.76 -37.94,43.41 -81.01,82.59 -129.19,117.52 -48.21,34.95 -97.92,64.07 -149.2,87.35 -8.21,4.24 -19.99,10.06 -35.37,17.49 -15.38,6.35 -31.79,13.23 -49.22,20.63 -16.41,6.37 -30.76,12.19 -43.07,17.49 -12.31,4.21 -19.99,7.4 -23.06,9.51 -30.76,14.83 -58.98,36.54 -84.6,65.12 -24.6,29.66 -36.91,71.47 -36.91,125.48 0,52.95 16.92,93.18 50.75,120.71 34.86,28.58 87.15,42.89 156.88,42.89 24.62,0 54.85,-2.13 90.75,-6.35 36.91,-3.19 81.01,-7.95 132.26,-14.3zm319.92 -309.7l0 -184.25c12.31,0 20.52,8.48 24.6,25.42 4.1,15.88 6.16,38.12 6.16,66.7 0,27.53 -2.06,49.76 -6.16,66.7 -4.08,16.94 -12.29,25.42 -24.6,25.42z"/>
    <path class="fil0" d="M1560 1930.45l0 -184.25 718.26 0 -63.06 55.58 0 -530.49 52.28 46.07 -193.78 0c-45.11,0 -80.48,5.82 -106.13,17.47 -25.63,11.65 -43.58,33.35 -53.82,65.12 -10.27,30.72 -15.38,74.66 -15.38,131.83 0,62.46 5.11,109.06 15.38,139.78 10.24,29.64 28.19,49.74 53.82,60.33 25.65,9.54 61.02,14.31 106.13,14.31l0 165.17c-87.15,0 -158.94,-12.7 -215.33,-38.12 -56.39,-25.42 -98.43,-65.65 -126.12,-120.71 -26.66,-56.11 -39.98,-129.72 -39.98,-220.76 0,-86.83 13.32,-159.88 39.98,-219.18 27.69,-59.3 69.73,-103.77 126.12,-133.41 56.39,-30.72 128.18,-46.07 215.33,-46.07l347.59 0 0 797.32 -861.3 0zm0 0c-12.31,0 -20.49,-8.48 -24.62,-25.42 -4.08,-16.94 -6.14,-39.18 -6.14,-66.7 0,-28.58 2.06,-50.82 6.14,-66.7 4.13,-16.94 12.31,-25.42 24.62,-25.42l0 184.25zm432.2 -943.42l0 -181.06 206.09 0 0 181.06 -206.09 0z"/>
    <path class="fil0" d="M2871.76 1930.45l0 -184.25 175.33 0 0 184.25 -175.33 0zm-204.56 0l0 -1122.9 204.56 0 0 1122.9 -204.56 0zm379.89 0l0 -184.25c12.31,0 20.52,8.48 24.62,25.42 4.1,15.88 6.14,38.12 6.14,66.7 0,27.53 -2.04,49.76 -6.14,66.7 -4.1,16.94 -12.31,25.42 -24.62,25.42z"/>
    <path class="fil0" d="M3414.55 1930.45l0 -184.25 161.48 0 0 184.25 -161.48 0zm-367.58 0l0 -184.25 281.46 0 -119.97 103.24 0 -716.31 206.09 0 0 797.32 -367.58 0zm0 0c-12.31,0 -20.52,-8.48 -24.62,-25.42 -4.1,-16.94 -6.14,-39.18 -6.14,-66.7 0,-28.58 2.04,-50.82 6.14,-66.7 4.1,-16.94 12.31,-25.42 24.62,-25.42l0 184.25zm529.06 0l0 -184.25c12.31,0 20.52,8.48 24.62,25.42 4.1,15.88 6.17,38.12 6.17,66.7 0,27.53 -2.06,49.76 -6.17,66.7 -4.1,16.94 -12.31,25.42 -24.62,25.42zm-367.58 -943.42l0 -181.06 206.09 0 0 181.06 -206.09 0z"/>
    <path class="fil0" d="M3575.67 1930.45l0 -184.25 798.24 0 -93.82 82.58 0 -292.23c0,-57.19 -6.15,-101.66 -18.45,-133.41 -12.31,-32.85 -33.83,-55.61 -64.59,-68.31 -29.75,-13.75 -71.29,-20.65 -124.58,-20.65 -42.06,0 -83.58,3.19 -124.6,9.54 -39.98,5.3 -71.24,12.7 -93.8,22.23l127.65 -123.87c-6.16,24.34 -12.31,55.06 -18.47,92.1 -5.11,37.07 -9.72,76.77 -13.82,119.13 -4.1,41.3 -6.17,82.06 -6.17,122.29 0,37.06 1.54,75.71 4.61,115.96 4.13,40.23 8.21,75.69 12.31,106.4 5.14,30.72 9.24,51.87 12.31,63.52l-195.32 55.61c-4.1,-14.83 -9.23,-39.2 -15.38,-73.08 -6.16,-33.88 -11.8,-74.11 -16.92,-120.71 -4.1,-46.58 -6.17,-95.81 -6.17,-147.71 0,-52.93 2.57,-103.75 7.7,-152.46 5.11,-49.79 10.75,-94.25 16.92,-133.43 7.17,-40.23 13.84,-72.53 19.99,-96.87 24.62,-9.53 63.06,-19.07 115.34,-28.61 52.31,-9.51 110.23,-14.28 173.82,-14.28 92.26,0 168.66,13.23 229.15,39.7 61.52,26.47 107.16,69.36 136.89,128.64 30.76,59.3 46.14,139.25 46.14,239.83l0 392.31 -908.97 0zm0 0c-12.31,0 -20.52,-8.48 -24.62,-25.42 -4.1,-16.94 -6.14,-39.18 -6.14,-66.7 0,-28.58 2.04,-50.82 6.14,-66.7 4.1,-16.94 12.31,-25.42 24.62,-25.42l0 184.25z"/>
    <path class="fil1" d="M6363.47 2273.91l559.43 -559.57c183.58,-183.6 183.58,-481.27 -0.07,-664.83 -183.58,-183.56 -481.25,-183.53 -664.81,0.07l-559.46 559.59c-183.56,183.6 -183.53,481.25 0.07,664.8 183.6,183.56 481.27,183.54 664.83,-0.07zm666.6 -1331.63c-242.84,-242.77 -636.5,-242.72 -879.27,0.12l-559.46 559.57c-242.77,242.81 -242.72,636.47 0.12,879.24 242.81,242.77 636.47,242.72 879.24,-0.09l559.43 -559.59c242.77,-242.82 242.77,-636.48 -0.07,-879.24z"/>
    <path class="fil1" d="M7063.41 2170.65l0 -791.27c0,-259.64 -210.52,-470.11 -470.13,-470.11 -259.62,0 -470.08,210.47 -470.08,470.11l0 791.27c0,259.64 210.47,470.11 470.08,470.11 259.62,0 470.13,-210.47 470.13,-470.11zm-470.13 -1412.98c-343.35,0 -621.71,278.34 -621.71,621.71l0 791.27c0,343.37 278.36,621.71 621.71,621.71 343.37,0 621.76,-278.34 621.76,-621.71l0 -791.27c0,-343.37 -278.39,-621.71 -621.76,-621.71z"/>
    <path class="fil1" d="M5804.81 1849.46l791.29 0c259.66,0 470.1,-210.47 470.1,-470.08 0,-259.64 -210.44,-470.11 -470.1,-470.11l-791.29 0c-259.62,0 -470.09,210.47 -470.09,470.11 0,259.62 210.47,470.08 470.09,470.08zm1413 -470.08c0,-343.37 -278.36,-621.71 -621.71,-621.71l-791.29 0c-343.35,0 -621.72,278.34 -621.72,621.71 0,343.35 278.36,621.71 621.72,621.71l791.29 0c343.35,0 621.71,-278.36 621.71,-621.71z"/>
   </g>
   <rect class="fil2" y="-0" width="7821.01" height="3550.03"/>
  </g>
 </g>
</svg>
