<svg xmlns="http://www.w3.org/2000/svg" viewBox="0 0 459 512" width="40" height="45">
<defs>
  <style type="text/css">
   <![CDATA[
    .fil0{fill:#ffffff}
   ]]>
  </style>
 </defs>
<path class="fil0" d="M285.6 453.7h0c-8.2 18.1-13.6 37.8-15.7 58.4l173-36.8c8.2-18.1 13.6-37.8 15.7-58.4l-173 36.8zM443 365.2c8.2-18.1 13.6-37.8 15.7-58.4l-134.8 28.7v-55.1L443 255c8.2-18.1 13.6-37.8 15.7-58.4l-134.8 28.6V27c-20.7 11.6-39 27-53.9 45.2v164.4L216 248.1V0c-20.7 11.6-39 27-53.9 45.2v214.3L41.5 285.2c-8.2 18.1-13.6 37.8-15.7 58.4l136.3-29v69.4l-146.1 31C7.9 433.2 2.5 452.9 .4 473.5L153.3 441c12.4-2.6 23.1-9.9 30.1-20.1l28-41.6v0c2.9-4.3 4.6-9.5 4.6-15.1v-61.1l53.9-11.5V402L443 365.2z"/></svg>